# xmcd
#
# Track frame offsets:
#	150
#	17612
#	33226
#	48264
#	64365
#	80193
#	96383
#	115517
#	131113
#	144292
#
# Disc length: 2172 seconds
#
# Revision: 0
# Processed by: cddbd v1.5.2PL0 Copyright (c) Steve Scherf et al.
# Submitted via: dBpowerAMP V4.0
#
DISCID=85087a0a
DTITLE=Marty Raybon - Marty Raybon
DYEAR=2000
DGENRE=Countrty
TTITLE0=Searching For The Missing Peace
TTITLE1=Sittin' On A Goldmine
TTITLE2=I Can't go For That
TTITLE3=Summertown Road
TTITLE4=That's That
TTITLE5=Don't Tell Me (You're Not In Love)
TTITLE6=She Doesn't Need Me Anymore
TTITLE7=Cracker Jack Diamond
TTITLE8=If I Didn't Love You
TTITLE9=Deep Summer (In The Deep South)
EXTD=
EXTT0=
EXTT1=
EXTT2=
EXTT3=
EXTT4=
EXTT5=
EXTT6=
EXTT7=
EXTT8=
EXTT9=
PLAYORDER=
